PathFileType	4	(X/Y/Z)	RBDS002\RBDS002runT45.trc
DataRate	CameraRate	NumFrames	NumMarkers	Units	OrigDataRate	OrigDataStartFrame	OrigNumFrames
150.000000	150.000000	4	33	mm	150.000000	3375	4500
Frame#	Time	L.ASIS			L.Heel.Bottom			L.Heel.Lateral			L.Heel.Top			L.Iliac.Crest			L.MT1			L.MT5			L.PSIS			L.Shank.Bottom.Lateral			L.Shank.Bottom.Medial			L.Shank.Top.Lateral			L.Shank.Top.Medial			L.Thigh.Bottom.Lateral			L.Thigh.Bottom.Medial			L.Thigh.Top.Lateral			L.Thigh.Top.Medial			R.ASIS			R.ASY			R.Heel.Bottom			R.Heel.Lateral			R.Heel.Top			R.Iliac.Crest			R.MT1			R.MT5			R.PSIS			R.Shank.Bottom.Lateral			R.Shank.Bottom.Medial			R.Shank.Top.Lateral			R.Shank.Top.Medial			R.Thigh.Bottom.Lateral			R.Thigh.Bottom.Medial			R.Thigh.Top.Lateral			R.Thigh.Top.Medial			
		X1	Y1	Z1	X2	Y2	Z2	X3	Y3	Z3	X4	Y4	Z4	X5	Y5	Z5	X6	Y6	Z6	X7	Y7	Z7	X8	Y8	Z8	X9	Y9	Z9	X10	Y10	Z10	X11	Y11	Z11	X12	Y12	Z12	X13	Y13	Z13	X14	Y14	Z14	X15	Y15	Z15	X16	Y16	Z16	X17	Y17	Z17	X18	Y18	Z18	X19	Y19	Z19	X20	Y20	Z20	X21	Y21	Z21	X22	Y22	Z22	X23	Y23	Z23	X24	Y24	Z24	X25	Y25	Z25	X26	Y26	Z26	X27	Y27	Z27	X28	Y28	Z28	X29	Y29	Z29	X30	Y30	Z30	X31	Y31	Z31	X32	Y32	Z32	X33	Y33	Z33	

3376	22.5	2399.895665548368	1029.590737345811	933.4325091076624	2551.054534473545	55.93705224105658	984.5844366703723	2587.469389247599	65.7073109118175	942.2723015456347	2552.804379358646	105.5482125926114	974.1570590351913	2292.036237164642	1101.940171575502	862.0934806347909	2761.503187434137	120.5076019992018	1055.962358132059	2753.522388765891	84.25429062173495	944.8734864631712	2204.295726670208	1060.597085409054	971.0891168895807	2597.140917618208	205.5343325530629	926.3602636341109	2553.841780265561	198.7570014406541	953.9425153468928	2575.386786121755	280.4425392952069	904.461240384165	2530.728461476291	278.1030109739267	933.8277664350123	2506.169165893105	631.8479434662111	885.9828142907013	2450.53917251517	597.6203589417597	919.6522088159138	2435.911017309965	713.2431979374103	860.0068225912057	2384.594129425078	682.5659120392863	893.5631061190842	2372.782181761464	998.3669654828407	1141.85380794926	1644.536910155429	386.2622301055537	1090.996358614031	1654.275706095049	574.3178917062444	1029.443666410525	1656.492420255803	559.889090565784	1073.7687914801	1696.151837709729	547.0119286586378	1038.439841452014	2304.109667771583	1098.651680823072	1178.123095341096	1585.788893216656	349.7874773648576	1055.47196107512	1585.990462841878	410.548773237641	1148.500586339151	2202.178342374704	1057.539030136652	1059.359698282075	1754.852290062813	511.2507246686971	1116.905381877704	1755.327142590694	545.1154357690851	1074.471937767134	1832.696586397165	531.5092384606356	1131.261109817744	1832.305289910047	563.8465544118964	1088.432793795239	2129.45832054599	608.9727243716744	1152.945480054303	2101.869703857164	628.4675706019858	1086.843669504214	2152.713240613928	715.2715252512851	1172.72428909308	2124.448606971606	733.6041465287361	1110.931635733925	
3377	22.50666666666667	2399.314124438109	1026.908106286508	933.4617868374528	2534.29830286091	52.71026808081217	988.4884884184846	2570.087220515167	60.98710417257007	945.3911039119367	2537.785724141675	102.1553903879454	977.7428787934072	2290.858061801327	1097.670327971462	862.492009792177	2747.864735082086	110.1490118420561	1054.766839864644	2736.388844825337	74.51467544988807	944.0073084045163	2203.089489479944	1054.769043718028	972.8535050168401	2584.711646007926	198.94638328957	927.7543838706915	2541.685271133159	193.4163979370238	955.8097056344329	2564.837639880124	274.3301799310924	905.7960823438054	2520.527812268707	273.3372575657342	935.6634212984486	2503.201794885399	627.2899227064323	885.9915610095813	2447.856483487326	593.3318968479173	920.3333307166288	2432.993937349608	708.9645508150453	860.5802286386272	2381.937142968504	678.4351345572177	894.6733732756206	2372.829154740346	994.9020617212984	1142.38268699346	1652.633713376269	402.3656368526549	1090.046014346115	1671.353025114019	591.1779676091894	1031.305978086436	1672.910690700446	575.7418235111062	1075.310988494878	1711.927260646861	561.5770185800091	1039.91282711279	2302.643903021527	1094.461226322035	1179.15974667489	1592.005447433484	369.4405487840845	1053.977724992796	1595.39343368181	428.609469592752	1147.845833778783	2201.712190202397	1051.519035380513	1061.062615726468	1768.434125460382	520.8524663052391	1117.96414727154	1770.502677996213	555.7434925024627	1076.363802679753	1847.132383442214	536.8313196023881	1132.70335560298	1848.302370143443	570.2453245400247	1090.690891302372	2139.39668342288	599.0213503960147	1153.840828186436	2110.997886949076	618.0580174712967	1088.09321958794	2159.812416150748	705.8315619125198	1174.202344954687	2130.813117287115	723.6974725449445	1112.67032938321	
3378	22.51333333333334	2398.551685080798	1023.808596730296	933.1234546947987	2515.076503397771	49.64813225501787	993.0529437401526	2549.98843513197	56.55735970593957	948.9920331145933	2520.382095364643	98.93542553512755	982.2258503482408	2289.449187653303	1093.223578422578	862.9284162949524	2732.175015557143	99.58119593582985	1053.156932089284	2716.505399588822	65.0908400126626	942.6214746920319	2201.912893170533	1048.741754868442	974.7830642309507	2570.457447219859	191.9868989552183	929.6329450609393	2527.702954673476	187.9813502203622	958.093218181713	2552.889901167462	267.8481299027849	907.5039662177815	2508.929580618058	268.47279649493	937.8042177723069	2499.725071840638	622.1502097150969	886.0850101830137	2444.742576515487	588.6021746416187	921.2790008758034	2429.629940075024	704.150409725598	861.2495105956433	2378.882882680589	673.863368756991	895.9872598451071	2372.951648434625	990.9980395276049	1142.569596317542	1662.997113249151	417.051313081578	1088.95953582631	1689.738537053038	606.2925395202543	1033.325209316929	1690.679614764638	589.7951690805697	1077.019934271316	1729.045662106638	574.6573183660307	1041.46986817248	2302.144558913776	1089.541934564981	1180.140585535836	1600.8637388699	387.4599457146405	1052.313803507186	1607.043135479299	444.751009105668	1147.116026544142	2201.231993191303	1045.114492279231	1062.987591571722	1783.39911996759	529.2817809309614	1119.065688887159	1787.097883517168	565.0229255560913	1078.217373711878	1862.664719075517	541.1425975107393	1134.196648445757	1865.412463848808	575.4839918843358	1092.961091332811	2149.319302407531	589.2879908792474	1154.669355224133	2119.952680520827	607.7091129631609	1089.346120471213	2166.824948400347	696.5857495502527	1175.418355264361	2136.942774829845	713.8521798286509	1114.214014890026	
3379	22.52	2397.556643150192	1020.292424453663	932.4746880145842	2493.651410593592	46.92942291643295	997.945224558752	2527.569657197742	52.72551982930349	952.8668707088867	2500.784443112854	96.07579233681415	987.3346013412478	2287.861456094547	1088.586843497106	863.3523585125351	2714.393646354159	89.32686195884011	1051.5540650406	2694.261382311794	56.54275007757917	941.0626244946463	2200.734342448934	1042.648728136506	976.8039545101493	2554.559231935453	184.9718961300171	931.9934874704455	2512.04107864007	182.7462084322547	960.7141678864425	2539.714212643431	261.2632195593521	909.5527924235523	2496.075771005063	263.7433376511185	940.1503000858833	2495.733064404164	616.4590793980329	886.2146651828673	2441.199488734484	583.5079989133355	922.4810394265925	2425.822246768771	698.8260182349288	861.9287075245802	2375.444151910542	668.9258492573845	897.4661750830439	2373.119525811577	986.7161199539547	1142.412609560501	1675.390125905659	430.1930055448561	1087.883755415723	1709.126521539017	619.5272296964249	1035.356474525075	1709.50929560947	602.0007037118829	1078.772684012882	1747.2401475507	586.1333867332444	1042.986208071634	2302.480704278	1083.992760295597	1181.046404849202	1612.096935482913	403.6056080327876	1050.697262361522	1620.668458617829	458.9569953697528	1146.446628001644	2200.684825209944	1038.457946430081	1065.048669792085	1799.55590475017	536.5260120103559	1120.176835843439	1804.914304468241	572.8916338911345	1079.954169692189	1879.148540366433	544.4624345042572	1135.689025256035	1883.481647951837	579.5255797621983	1095.144512840847	2159.223259781068	579.8355647266704	1155.449676062122	2128.800271337966	597.4375998674983	1090.568014927393	2173.726496801602	687.6014928069458	1176.343176623392	2142.838033953982	704.0956498690763	1115.511067292029	
